<mxfile host="app.diagrams.net" modified="2021-11-21T15:07:11.981Z" agent="5.0 (Windows NT 10.0; Win64; x64) AppleWebKit/537.36 (KHTML, like Gecko) Chrome/96.0.4664.45 Safari/537.36" etag="vTo_yw4e6g8TCMojT2PY" version="15.5.4" type="github" pages="2">
  <diagram id="KvIKr-rcVKtaRuGSaWGE" name="Page-1">
    <mxGraphModel dx="1422" dy="794" grid="1" gridSize="10" guides="1" tooltips="1" connect="1" arrows="1" fold="1" page="1" pageScale="1" pageWidth="827" pageHeight="1169" math="0" shadow="0">
      <root>
        <mxCell id="0" />
        <mxCell id="1" parent="0" />
        <mxCell id="KX0KcYWai53maxAbhCWp-1" value="Zarządca programu" style="shape=umlActor;verticalLabelPosition=bottom;verticalAlign=top;html=1;outlineConnect=0;" vertex="1" parent="1">
          <mxGeometry x="150" y="810" width="30" height="60" as="geometry" />
        </mxCell>
        <mxCell id="KX0KcYWai53maxAbhCWp-2" value="Właściciel&lt;br&gt;" style="shape=umlActor;verticalLabelPosition=bottom;verticalAlign=top;html=1;outlineConnect=0;" vertex="1" parent="1">
          <mxGeometry x="690" y="230" width="30" height="60" as="geometry" />
        </mxCell>
        <mxCell id="KX0KcYWai53maxAbhCWp-3" value="Klient&lt;br&gt;" style="shape=umlActor;verticalLabelPosition=bottom;verticalAlign=top;html=1;outlineConnect=0;" vertex="1" parent="1">
          <mxGeometry x="160" y="585" width="30" height="60" as="geometry" />
        </mxCell>
        <mxCell id="KX0KcYWai53maxAbhCWp-5" value="Inspektor&lt;br&gt;" style="shape=umlActor;verticalLabelPosition=bottom;verticalAlign=top;html=1;outlineConnect=0;" vertex="1" parent="1">
          <mxGeometry x="700" y="730" width="30" height="60" as="geometry" />
        </mxCell>
        <mxCell id="KX0KcYWai53maxAbhCWp-6" value="Prowadzenie aktualności,&lt;br&gt;Całości programu,&amp;nbsp;" style="ellipse;whiteSpace=wrap;html=1;" vertex="1" parent="1">
          <mxGeometry x="340" y="860" width="200" height="120" as="geometry" />
        </mxCell>
        <mxCell id="KX0KcYWai53maxAbhCWp-7" value="ROZLICZENIA FINANSOWE, PROWADZENIE KSIĄG&amp;nbsp;" style="ellipse;whiteSpace=wrap;html=1;" vertex="1" parent="1">
          <mxGeometry x="290" y="250" width="210" height="130" as="geometry" />
        </mxCell>
        <mxCell id="KX0KcYWai53maxAbhCWp-8" value="Rozliczanie się, dostawa dokumentów, zaświadczenia" style="ellipse;whiteSpace=wrap;html=1;" vertex="1" parent="1">
          <mxGeometry x="320" y="515" width="230" height="140" as="geometry" />
        </mxCell>
        <mxCell id="KX0KcYWai53maxAbhCWp-9" value="Nadzór techniczny" style="ellipse;whiteSpace=wrap;html=1;" vertex="1" parent="1">
          <mxGeometry x="325" y="690" width="220" height="140" as="geometry" />
        </mxCell>
        <mxCell id="KX0KcYWai53maxAbhCWp-11" value="" style="endArrow=none;html=1;rounded=0;exitX=1;exitY=0.3333333333333333;exitDx=0;exitDy=0;exitPerimeter=0;" edge="1" parent="1" source="KX0KcYWai53maxAbhCWp-1" target="KX0KcYWai53maxAbhCWp-6">
          <mxGeometry width="50" height="50" relative="1" as="geometry">
            <mxPoint x="260" y="195" as="sourcePoint" />
            <mxPoint x="330" y="160" as="targetPoint" />
          </mxGeometry>
        </mxCell>
        <mxCell id="KX0KcYWai53maxAbhCWp-14" value="" style="endArrow=none;html=1;rounded=0;entryX=0;entryY=0.3333333333333333;entryDx=0;entryDy=0;entryPerimeter=0;exitX=1;exitY=0.5;exitDx=0;exitDy=0;" edge="1" parent="1" source="KX0KcYWai53maxAbhCWp-7" target="KX0KcYWai53maxAbhCWp-2">
          <mxGeometry width="50" height="50" relative="1" as="geometry">
            <mxPoint x="590" y="320" as="sourcePoint" />
            <mxPoint x="640" y="270" as="targetPoint" />
          </mxGeometry>
        </mxCell>
        <mxCell id="KX0KcYWai53maxAbhCWp-15" value="" style="endArrow=none;html=1;rounded=0;exitX=1;exitY=0.3333333333333333;exitDx=0;exitDy=0;exitPerimeter=0;entryX=0;entryY=0.5;entryDx=0;entryDy=0;" edge="1" parent="1" source="KX0KcYWai53maxAbhCWp-3" target="KX0KcYWai53maxAbhCWp-8">
          <mxGeometry width="50" height="50" relative="1" as="geometry">
            <mxPoint x="250" y="475" as="sourcePoint" />
            <mxPoint x="300" y="425" as="targetPoint" />
          </mxGeometry>
        </mxCell>
        <mxCell id="KX0KcYWai53maxAbhCWp-16" value="" style="endArrow=none;html=1;rounded=0;exitX=1;exitY=0.5;exitDx=0;exitDy=0;entryX=0;entryY=0.3333333333333333;entryDx=0;entryDy=0;entryPerimeter=0;" edge="1" parent="1" source="KX0KcYWai53maxAbhCWp-9" target="KX0KcYWai53maxAbhCWp-5">
          <mxGeometry width="50" height="50" relative="1" as="geometry">
            <mxPoint x="590" y="640" as="sourcePoint" />
            <mxPoint x="640" y="590" as="targetPoint" />
          </mxGeometry>
        </mxCell>
        <mxCell id="KX0KcYWai53maxAbhCWp-19" value="Podopieczny" style="shape=umlActor;verticalLabelPosition=bottom;verticalAlign=top;html=1;outlineConnect=0;" vertex="1" parent="1">
          <mxGeometry x="680" y="420" width="30" height="60" as="geometry" />
        </mxCell>
        <mxCell id="KX0KcYWai53maxAbhCWp-20" value="Rozliczenia, prowadzenie rachunkowości itd" style="ellipse;whiteSpace=wrap;html=1;" vertex="1" parent="1">
          <mxGeometry x="345" y="390" width="190" height="120" as="geometry" />
        </mxCell>
        <mxCell id="KX0KcYWai53maxAbhCWp-21" value="" style="endArrow=none;html=1;rounded=0;exitX=1;exitY=0.3333333333333333;exitDx=0;exitDy=0;exitPerimeter=0;" edge="1" parent="1" source="KX0KcYWai53maxAbhCWp-19">
          <mxGeometry width="50" height="50" relative="1" as="geometry">
            <mxPoint x="275" y="465" as="sourcePoint" />
            <mxPoint x="530" y="440" as="targetPoint" />
          </mxGeometry>
        </mxCell>
        <mxCell id="KX0KcYWai53maxAbhCWp-22" value="" style="endArrow=classic;html=1;rounded=0;exitX=1;exitY=1;exitDx=0;exitDy=0;exitPerimeter=0;entryX=0.5;entryY=0;entryDx=0;entryDy=0;entryPerimeter=0;" edge="1" parent="1" source="KX0KcYWai53maxAbhCWp-2" target="KX0KcYWai53maxAbhCWp-19">
          <mxGeometry width="50" height="50" relative="1" as="geometry">
            <mxPoint x="680" y="400" as="sourcePoint" />
            <mxPoint x="730" y="350" as="targetPoint" />
          </mxGeometry>
        </mxCell>
        <mxCell id="KX0KcYWai53maxAbhCWp-23" value="" style="endArrow=none;html=1;rounded=0;exitX=1;exitY=0;exitDx=0;exitDy=0;entryX=0;entryY=1;entryDx=0;entryDy=0;entryPerimeter=0;" edge="1" parent="1" source="KX0KcYWai53maxAbhCWp-20" target="KX0KcYWai53maxAbhCWp-2">
          <mxGeometry width="50" height="50" relative="1" as="geometry">
            <mxPoint x="580" y="380" as="sourcePoint" />
            <mxPoint x="630" y="330" as="targetPoint" />
          </mxGeometry>
        </mxCell>
        <mxCell id="KX0KcYWai53maxAbhCWp-24" value="" style="endArrow=none;html=1;rounded=0;exitX=1;exitY=0.3333333333333333;exitDx=0;exitDy=0;exitPerimeter=0;entryX=0.009;entryY=0.557;entryDx=0;entryDy=0;entryPerimeter=0;" edge="1" parent="1" source="KX0KcYWai53maxAbhCWp-1" target="KX0KcYWai53maxAbhCWp-9">
          <mxGeometry width="50" height="50" relative="1" as="geometry">
            <mxPoint x="230" y="800" as="sourcePoint" />
            <mxPoint x="280" y="750" as="targetPoint" />
          </mxGeometry>
        </mxCell>
      </root>
    </mxGraphModel>
  </diagram>
  <diagram id="F2vnUiEYM30HaFJuSkFo" name="Page-2">
    <mxGraphModel dx="1422" dy="794" grid="1" gridSize="1" guides="1" tooltips="1" connect="1" arrows="1" fold="1" page="1" pageScale="1" pageWidth="827" pageHeight="1169" math="0" shadow="0">
      <root>
        <mxCell id="F15ijQdSTDq_nnTBwm_q-0" />
        <mxCell id="F15ijQdSTDq_nnTBwm_q-1" parent="F15ijQdSTDq_nnTBwm_q-0" />
        <mxCell id="F15ijQdSTDq_nnTBwm_q-2" value="AKTORZY:&lt;br style=&quot;font-size: 19px&quot;&gt;Manager&lt;br style=&quot;font-size: 19px&quot;&gt;Admin&lt;br style=&quot;font-size: 19px&quot;&gt;Klienci" style="text;html=1;align=center;verticalAlign=middle;resizable=0;points=[];autosize=1;strokeColor=none;fillColor=none;fontSize=19;" vertex="1" parent="F15ijQdSTDq_nnTBwm_q-1">
          <mxGeometry x="30" y="50" width="110" height="100" as="geometry" />
        </mxCell>
        <mxCell id="F15ijQdSTDq_nnTBwm_q-3" value="Dodawanie i obsługa rachunkowości&lt;br style=&quot;font-size: 19px;&quot;&gt;" style="text;html=1;align=center;verticalAlign=middle;resizable=0;points=[];autosize=1;strokeColor=none;fillColor=none;strokeWidth=13;fontSize=19;" vertex="1" parent="F15ijQdSTDq_nnTBwm_q-1">
          <mxGeometry x="260" y="160" width="320" height="30" as="geometry" />
        </mxCell>
        <mxCell id="F15ijQdSTDq_nnTBwm_q-4" value="" style="whiteSpace=wrap;html=1;aspect=fixed;fontSize=19;strokeWidth=13;" vertex="1" parent="F15ijQdSTDq_nnTBwm_q-1">
          <mxGeometry x="370" y="330" as="geometry" />
        </mxCell>
        <mxCell id="F15ijQdSTDq_nnTBwm_q-5" value="" style="rounded=1;whiteSpace=wrap;html=1;fontSize=19;strokeWidth=13;" vertex="1" parent="F15ijQdSTDq_nnTBwm_q-1">
          <mxGeometry x="174" y="260" width="480" height="1380" as="geometry" />
        </mxCell>
        <mxCell id="F15ijQdSTDq_nnTBwm_q-6" value="" style="endArrow=none;html=1;rounded=0;fontSize=19;entryX=0.5;entryY=1;entryDx=0;entryDy=0;exitX=0.5;exitY=0;exitDx=0;exitDy=0;" edge="1" parent="F15ijQdSTDq_nnTBwm_q-1" source="F15ijQdSTDq_nnTBwm_q-5" target="F15ijQdSTDq_nnTBwm_q-5">
          <mxGeometry width="50" height="50" relative="1" as="geometry">
            <mxPoint x="390" y="590" as="sourcePoint" />
            <mxPoint x="440" y="540" as="targetPoint" />
          </mxGeometry>
        </mxCell>
        <mxCell id="F15ijQdSTDq_nnTBwm_q-7" value="Otwieranie ksiąg i dodawanie, rozliczanie klientów" style="ellipse;whiteSpace=wrap;html=1;fontSize=19;strokeWidth=13;" vertex="1" parent="F15ijQdSTDq_nnTBwm_q-1">
          <mxGeometry x="190" y="270" width="190" height="180" as="geometry" />
        </mxCell>
        <mxCell id="F15ijQdSTDq_nnTBwm_q-8" value="Uzupełnienie loginu hasła aby zweryfikować konto danego klienta" style="ellipse;whiteSpace=wrap;html=1;aspect=fixed;fontSize=19;strokeWidth=13;" vertex="1" parent="F15ijQdSTDq_nnTBwm_q-1">
          <mxGeometry x="190" y="505" width="195" height="195" as="geometry" />
        </mxCell>
        <mxCell id="F15ijQdSTDq_nnTBwm_q-9" value="" style="endArrow=none;html=1;rounded=0;fontSize=19;entryX=0.5;entryY=1;entryDx=0;entryDy=0;exitX=0.5;exitY=0;exitDx=0;exitDy=0;" edge="1" parent="F15ijQdSTDq_nnTBwm_q-1" source="F15ijQdSTDq_nnTBwm_q-8" target="F15ijQdSTDq_nnTBwm_q-7">
          <mxGeometry width="50" height="50" relative="1" as="geometry">
            <mxPoint x="260" y="505" as="sourcePoint" />
            <mxPoint x="310" y="455" as="targetPoint" />
          </mxGeometry>
        </mxCell>
        <mxCell id="F15ijQdSTDq_nnTBwm_q-10" value="Odpowiednia funkcja: dodanie, rozliczenia, obsługa" style="ellipse;whiteSpace=wrap;html=1;aspect=fixed;fontSize=19;strokeWidth=13;" vertex="1" parent="F15ijQdSTDq_nnTBwm_q-1">
          <mxGeometry x="190" y="740" width="200" height="200" as="geometry" />
        </mxCell>
        <mxCell id="F15ijQdSTDq_nnTBwm_q-11" value="" style="endArrow=none;html=1;rounded=0;fontSize=19;entryX=0.5;entryY=1;entryDx=0;entryDy=0;exitX=0.5;exitY=0;exitDx=0;exitDy=0;" edge="1" parent="F15ijQdSTDq_nnTBwm_q-1" source="F15ijQdSTDq_nnTBwm_q-10" target="F15ijQdSTDq_nnTBwm_q-8">
          <mxGeometry width="50" height="50" relative="1" as="geometry">
            <mxPoint x="260" y="750" as="sourcePoint" />
            <mxPoint x="310" y="700" as="targetPoint" />
          </mxGeometry>
        </mxCell>
        <mxCell id="F15ijQdSTDq_nnTBwm_q-12" value="ADMINISTRATOR / MANAGER" style="text;html=1;align=center;verticalAlign=middle;resizable=0;points=[];autosize=1;strokeColor=none;fillColor=none;fontSize=19;" vertex="1" parent="F15ijQdSTDq_nnTBwm_q-1">
          <mxGeometry x="150" y="230" width="280" height="30" as="geometry" />
        </mxCell>
        <mxCell id="F15ijQdSTDq_nnTBwm_q-13" value="KLIENT" style="text;html=1;align=center;verticalAlign=middle;resizable=0;points=[];autosize=1;strokeColor=none;fillColor=none;fontSize=19;" vertex="1" parent="F15ijQdSTDq_nnTBwm_q-1">
          <mxGeometry x="500" y="230" width="80" height="30" as="geometry" />
        </mxCell>
        <mxCell id="F15ijQdSTDq_nnTBwm_q-14" value="Odpowiednia weryfikacja wpisywanych danych do zapisu" style="ellipse;whiteSpace=wrap;html=1;aspect=fixed;fontSize=19;strokeWidth=13;" vertex="1" parent="F15ijQdSTDq_nnTBwm_q-1">
          <mxGeometry x="205" y="989" width="180" height="180" as="geometry" />
        </mxCell>
        <mxCell id="F15ijQdSTDq_nnTBwm_q-15" value="" style="endArrow=none;html=1;rounded=0;fontSize=19;entryX=0.5;entryY=1;entryDx=0;entryDy=0;exitX=0.5;exitY=0;exitDx=0;exitDy=0;" edge="1" parent="F15ijQdSTDq_nnTBwm_q-1" source="F15ijQdSTDq_nnTBwm_q-14" target="F15ijQdSTDq_nnTBwm_q-10">
          <mxGeometry width="50" height="50" relative="1" as="geometry">
            <mxPoint x="262.5" y="990" as="sourcePoint" />
            <mxPoint x="312.5" y="940" as="targetPoint" />
          </mxGeometry>
        </mxCell>
        <mxCell id="F15ijQdSTDq_nnTBwm_q-17" value="Dodanie elementu&amp;nbsp;" style="ellipse;whiteSpace=wrap;html=1;aspect=fixed;fontSize=19;strokeWidth=13;" vertex="1" parent="F15ijQdSTDq_nnTBwm_q-1">
          <mxGeometry x="210" y="1220" width="180" height="180" as="geometry" />
        </mxCell>
        <mxCell id="F15ijQdSTDq_nnTBwm_q-18" value="" style="endArrow=none;html=1;rounded=0;fontSize=19;exitX=0.5;exitY=0;exitDx=0;exitDy=0;" edge="1" parent="F15ijQdSTDq_nnTBwm_q-1" source="F15ijQdSTDq_nnTBwm_q-17">
          <mxGeometry width="50" height="50" relative="1" as="geometry">
            <mxPoint x="250" y="1220" as="sourcePoint" />
            <mxPoint x="300" y="1170" as="targetPoint" />
          </mxGeometry>
        </mxCell>
        <mxCell id="F15ijQdSTDq_nnTBwm_q-19" value="Końcowa weryfikacja" style="ellipse;whiteSpace=wrap;html=1;aspect=fixed;fontSize=19;strokeWidth=13;" vertex="1" parent="F15ijQdSTDq_nnTBwm_q-1">
          <mxGeometry x="225" y="1430" width="160" height="160" as="geometry" />
        </mxCell>
        <mxCell id="F15ijQdSTDq_nnTBwm_q-20" value="" style="endArrow=none;html=1;rounded=0;fontSize=19;exitX=0.5;exitY=0;exitDx=0;exitDy=0;" edge="1" parent="F15ijQdSTDq_nnTBwm_q-1" source="F15ijQdSTDq_nnTBwm_q-19">
          <mxGeometry width="50" height="50" relative="1" as="geometry">
            <mxPoint x="260" y="1450" as="sourcePoint" />
            <mxPoint x="310" y="1400" as="targetPoint" />
          </mxGeometry>
        </mxCell>
        <mxCell id="F15ijQdSTDq_nnTBwm_q-21" value="Widoczność wpisanego elementu" style="ellipse;whiteSpace=wrap;html=1;aspect=fixed;fontSize=19;strokeWidth=13;" vertex="1" parent="F15ijQdSTDq_nnTBwm_q-1">
          <mxGeometry x="460" y="1250" width="160" height="160" as="geometry" />
        </mxCell>
        <mxCell id="F15ijQdSTDq_nnTBwm_q-22" value="Potwierdzenie stanu&amp;nbsp;" style="ellipse;whiteSpace=wrap;html=1;aspect=fixed;fontSize=19;strokeWidth=13;" vertex="1" parent="F15ijQdSTDq_nnTBwm_q-1">
          <mxGeometry x="465" y="1450" width="150" height="150" as="geometry" />
        </mxCell>
        <mxCell id="F15ijQdSTDq_nnTBwm_q-23" value="" style="endArrow=none;html=1;rounded=0;fontSize=19;exitX=1;exitY=0;exitDx=0;exitDy=0;" edge="1" parent="F15ijQdSTDq_nnTBwm_q-1" source="F15ijQdSTDq_nnTBwm_q-19" target="F15ijQdSTDq_nnTBwm_q-21">
          <mxGeometry width="50" height="50" relative="1" as="geometry">
            <mxPoint x="390" y="1440" as="sourcePoint" />
            <mxPoint x="440" y="1390" as="targetPoint" />
          </mxGeometry>
        </mxCell>
        <mxCell id="F15ijQdSTDq_nnTBwm_q-24" value="" style="endArrow=none;html=1;rounded=0;fontSize=19;exitX=0.5;exitY=0;exitDx=0;exitDy=0;" edge="1" parent="F15ijQdSTDq_nnTBwm_q-1" source="F15ijQdSTDq_nnTBwm_q-22">
          <mxGeometry width="50" height="50" relative="1" as="geometry">
            <mxPoint x="500" y="1460" as="sourcePoint" />
            <mxPoint x="550" y="1410" as="targetPoint" />
          </mxGeometry>
        </mxCell>
      </root>
    </mxGraphModel>
  </diagram>
</mxfile>
